<svg width="40" height="20" viewBox="0 0 40 30" fill="none" xmlns="http://www.w3.org/2000/svg">
<path d="M4.52193 6.94238C4.92965 6.94238 5.26018 6.61118 5.26018 6.20263C5.26018 5.79409 4.92965 5.46289 4.52193 5.46289C4.11421 5.46289 3.78369 5.79409 3.78369 6.20263C3.78369 6.61118 4.11421 6.94238 4.52193 6.94238Z" fill="white"/>
<path d="M3.2922 3.98535C3.02006 3.98535 2.80054 4.20637 2.80054 4.47851C2.80054 4.75066 3.02006 4.97168 3.2922 4.97168C3.56434 4.97168 3.78386 4.75066 3.78386 4.47851C3.78386 4.20637 3.56434 3.98535 3.2922 3.98535Z" fill="white"/>
<path d="M5.87395 9.40576C6.48511 9.40576 6.98056 8.90896 6.98056 8.29614C6.98056 7.68332 6.48511 7.18652 5.87395 7.18652C5.26278 7.18652 4.76733 7.68332 4.76733 8.29614C4.76733 8.90896 5.26278 9.40576 5.87395 9.40576Z" fill="white"/>
<path d="M27.3881 0.288469C24.9764 -0.34302 23.8608 0.473405 23.4533 1.27479C23.0459 2.07618 19.7651 10.1457 19.7651 10.1457L21.7318 13.3498C21.7318 13.3498 23.4248 14.4203 24.6817 12.61C26.3251 10.2434 29.1082 3.98569 29.1082 3.98569C29.1082 3.98569 29.7983 0.919958 27.3866 0.289972L27.3881 0.288469Z" fill="white"/>
<path d="M27.2378 0.205781C25.1975 -0.340005 24.2623 0.321554 23.9451 0.781639C23.6684 1.18158 23.2068 1.76796 23.2068 1.76796C23.2068 1.76796 22.7843 4.43074 23.9451 6.69659C25.1043 8.95942 25.417 10.9546 25.175 11.3786C26.662 9.0346 29.1098 3.73911 29.1098 3.73911C29.1098 3.73911 29.7006 0.864334 27.2393 0.207285L27.2378 0.205781Z" fill="white"/>
<path d="M25.1749 11.3778C24.6501 11.1913 25.6169 9.37353 23.2082 6.69571C22.3166 5.78757 22.5181 3.60142 22.6805 3.08721L19.8328 10.0727C19.8328 10.0727 21.4641 13.3895 24.4381 12.6107C24.9599 11.6303 24.5599 12.3821 24.5599 12.3821L25.1749 11.3778ZM22.6805 3.08721L22.7166 3C22.7045 3.01804 22.6925 3.04811 22.6805 3.08721Z" fill="white"/>
<path d="M20.2584 12.8556C18.382 9.77934 17.0618 7.18874 17.0618 7.18874C17.0618 7.18874 15.7688 4.86125 14.6035 7.18874C13.4368 9.51622 11.1619 14.3351 11.1619 14.3351L7.96538 10.1462C7.96538 10.1462 6.30245 9.35083 6.4904 11.3776L10.9168 19.5088C10.9168 19.5088 11.613 20.4064 12.6384 19.0156C13.6638 17.6248 15.3433 14.8267 15.3433 14.8267C15.3433 14.8267 16.0214 13.8344 16.5732 15.0733C17.0739 16.198 18.7864 19.0156 18.7864 19.0156C18.7864 19.0156 20.1351 20.8154 21.2447 19.0156C22.2431 17.3993 23.9496 13.8404 23.9496 13.8404C23.9496 13.8404 22.5137 15.5936 20.2614 12.8541L20.2584 12.8556Z" fill="white"/>
<path d="M18.2916 9.65278L16.8166 6.94189L15.8333 6.20215C15.8333 6.20215 17.0812 8.45296 17.3082 11.869C17.5353 15.2866 17.1323 16.3165 18.2916 18.2756C19.4508 20.2347 18.2916 9.65128 18.2916 9.65128V9.65278Z" fill="white"/>
<path d="M13.5616 17.107L11.1605 14.2938L7.96391 10.105C7.96391 10.105 6.30099 9.3096 6.48893 11.3364L10.9154 19.4675C10.9154 19.4675 11.6912 20.4223 12.6369 18.9744C13.5661 17.552 13.7932 17.5896 13.5631 17.107H13.5616Z" fill="white"/>
<path d="M21.4867 13.842C20.3395 12.7399 17.4571 7.1377 16.8151 7.18882C16.7415 7.19484 18.1052 9.43512 18.2901 15.0734C18.4254 19.1991 18.5277 18.5737 18.5397 18.482C18.5397 18.4895 18.5382 18.503 18.5367 18.5225C18.5367 18.5225 18.8194 19.9584 20.5033 20.0005C21.1108 19.9148 22.0039 19.6081 24.4381 13.5939C23.5601 13.9578 22.6339 14.9426 21.4882 13.8405L21.4867 13.842Z" fill="white"/>
<g opacity="0.5">
<path d="M21.2416 13.5961C20.2252 11.891 17.0618 7.18945 17.0618 7.18945L20.75 14.829C20.75 14.829 21.61 17.0437 22.9632 16.5535C23.5781 15.695 24.4382 13.5961 24.4382 13.5961C24.4382 13.5961 22.258 15.3011 21.2416 13.5961Z" fill="white"/>
</g>
<path d="M12.6354 16.0598C12.4053 15.8899 12.4038 15.8298 12.3888 15.8133C11.5979 14.9247 10.9905 14.1143 10.9905 14.1143L10.6672 14.3353L13.4443 17.831C13.3796 18.0355 14.6231 15.926 14.8245 15.6298C14.6577 15.8388 13.742 16.8793 12.6354 16.0598ZM14.8245 15.6298C14.8426 15.6073 14.8516 15.5937 14.8516 15.5937C14.8501 15.5937 14.8396 15.6058 14.8245 15.6298Z" fill="white"/>
</svg>
